<svg preserveAspectRatio="none" overflow="visible" style="display: block;" width="20" height="20" viewBox="0 0 20 20" fill="none" xmlns="http://www.w3.org/2000/svg">
<g id="icon/reset">
<g id="container" opacity="0.1">
</g>
<path id="Vector" d="M10.0387 2.16675C12.8212 2.1669 15.2664 3.60369 16.6667 5.77222V3.33374C16.6667 2.96555 16.9655 2.66675 17.3337 2.66675C17.7017 2.66692 17.9997 2.96566 17.9997 3.33374V7.49976C17.9997 7.86784 17.7017 8.16657 17.3337 8.16675H13.1667C12.7985 8.16675 12.4997 7.86795 12.4997 7.49976C12.4999 7.13175 12.7986 6.83374 13.1667 6.83374H15.7507C14.6323 4.84539 12.4942 3.49992 10.0387 3.49976C6.42324 3.49976 3.4979 6.41357 3.49772 9.99976C3.49772 13.5861 6.42313 16.4998 10.0387 16.4998C13.3195 16.4995 16.0329 14.0995 16.5055 10.9753C16.5606 10.6113 16.9003 10.3608 17.2643 10.4158C17.6283 10.4708 17.8788 10.8106 17.8239 11.1746C17.2533 14.9464 13.9832 17.8335 10.0387 17.8337C5.6938 17.8337 2.16471 14.3295 2.16471 9.99976C2.16489 5.67016 5.69391 2.16675 10.0387 2.16675Z" fill="#33363D"/>
</g>
</svg>
