<svg preserveAspectRatio="none" overflow="visible" style="display: block;" width="14.44" height="13.4707" viewBox="0 0 14.44 13.4707" fill="none" xmlns="http://www.w3.org/2000/svg">
<g id="Group 1707482312">
<path id="Union" d="M8.85581 1.29572C8.93006 1.36996 8.9909 1.47093 9.0386 1.59819C9.08639 1.72552 9.11041 1.84777 9.11041 1.96449V2.18718L8.41044 4.95658H12.6663C13.0058 4.95658 13.3031 5.08418 13.5577 5.33885C13.8123 5.59341 13.9399 5.89021 13.94 6.22958V7.50331C13.94 7.57755 13.9319 7.65711 13.9161 7.74195C13.9001 7.82681 13.8761 7.90634 13.8443 7.98059L11.8641 12.2069C11.7687 12.419 11.6096 12.5995 11.3869 12.748C11.164 12.8966 10.9302 12.9707 10.6862 12.9707H0.5V4.95658H3.60351L8.06009 0.5L8.85581 1.29572Z" stroke="#485166" stroke-linecap="round" stroke-linejoin="round"/>
<path id="Vector 65" d="M3.25234 5.03438V12.8642" stroke="#485166" stroke-linecap="round" stroke-linejoin="round"/>
</g>
</svg>
