<svg width="178" height="48" viewBox="0 0 178 48" fill="none" xmlns="http://www.w3.org/2000/svg">
<path d="M48.6536 24C48.6536 37.2527 37.7599 48 24.3268 48C10.8937 48 0 37.2527 0 24C0 10.7473 10.8937 0 24.3268 0C37.7599 0 48.6536 10.7473 48.6536 24Z" fill="white"/>
<path d="M35.7384 22.3244C31.8727 19.7313 26.9232 20.7845 24.3191 24.6861C22.1517 27.9414 18.8763 28.3483 17.6146 28.3483C13.4739 28.3483 10.6514 25.476 9.81033 22.5079C9.81033 22.5079 9.79416 22.4521 9.78607 22.4201C9.77799 22.3882 9.7699 22.3563 9.76181 22.3244C9.43023 21.0797 9.34936 20.4973 9.34936 19.1808C9.34936 12.0877 16.7331 4.18078 27.3599 4.18078C37.9867 4.18078 44.4809 12.359 46.0903 16.9068C46.0579 16.8191 46.0336 16.7473 46.0094 16.6675C42.9119 7.77121 34.3717 1.38025 24.3029 1.38025C11.6543 1.38025 1.3833 11.5052 1.3833 23.9999C1.3833 35.1701 9.54345 44.7207 20.8738 44.7207C29.8993 44.7207 35.973 39.726 38.755 32.8404C40.2835 29.0744 39.1998 24.6462 35.7384 22.3244Z" fill="#003964"/>
<path d="M46.228 17.3376C44.8855 12.9015 38.6097 4.17273 27.3602 4.17273C16.7334 4.17273 9.34961 12.0796 9.34961 19.1727C9.34961 20.4892 9.43048 21.0796 9.76206 22.3163C9.62458 21.7738 9.55179 21.2312 9.55179 20.7046C9.55179 13.3084 17.0488 8.19401 24.7641 8.19401C35.2049 8.19401 43.6724 16.5398 43.6724 26.8403C43.6724 34.9148 38.9655 41.9041 32.1236 45.2632C40.9469 42.1195 47.2389 33.7818 47.2389 23.9919C47.2389 21.678 46.9235 19.6355 46.2361 17.3376" fill="#ED1A3B"/>
<path d="M71.4761 31.9922H68.6577V16.25H59.9741V13.7109H71.4761V31.9922ZM77.1382 12.3145H79.9565V34.9629H77.1382V12.3145ZM98.0601 13.9395V16.3008H95.394C95.6649 16.6055 95.9019 16.944 96.105 17.3164C96.3758 17.875 96.5112 18.4759 96.5112 19.1191C96.5112 19.7624 96.3674 20.3717 96.0796 20.9473C95.7918 21.5059 95.411 21.9967 94.937 22.4199C94.4631 22.8431 93.9045 23.1732 93.2612 23.4102C93.0412 23.4948 92.8211 23.5625 92.6011 23.6133V24.7305H98.771V27.0918H83.7144V24.7305H89.8081V23.6387C89.5711 23.571 89.3341 23.4948 89.0972 23.4102C88.4539 23.1732 87.9038 22.8431 87.4468 22.4199C86.9559 21.9967 86.5666 21.5059 86.2788 20.9473C85.991 20.3717 85.8472 19.7624 85.8472 19.1191C85.8472 18.4759 85.9995 17.875 86.3042 17.3164C86.4735 16.944 86.6935 16.6055 86.9644 16.3008H84.2476V13.9395H89.6558V11.7051H92.7026V13.9395H98.0601ZM93.769 19.043C93.769 18.3659 93.5151 17.7819 93.0073 17.291C92.4995 16.8001 91.8901 16.5547 91.1792 16.5547C90.4683 16.5547 89.8589 16.8001 89.3511 17.291C88.8602 17.7819 88.6147 18.3659 88.6147 19.043C88.6147 19.7201 88.8602 20.304 89.3511 20.7949C89.8589 21.2858 90.4683 21.5312 91.1792 21.5312C91.8901 21.5312 92.4995 21.2858 93.0073 20.7949C93.5151 20.304 93.769 19.7201 93.769 19.043ZM100.574 12.3145H103.367V27.2949H100.574V12.3145ZM103.367 28.5898V35.0137H100.574V30.9004H85.1362V28.5898H103.367ZM119.515 21.8105C119.515 22.6738 119.337 23.4863 118.982 24.248C118.626 25.0098 118.161 25.6784 117.585 26.2539C116.976 26.8294 116.274 27.2865 115.478 27.625C114.682 27.9635 113.828 28.1328 112.914 28.1328C112.016 28.1328 111.17 27.9635 110.375 27.625C109.579 27.2865 108.876 26.8294 108.267 26.2539C107.675 25.6784 107.201 25.0098 106.845 24.248C106.49 23.4863 106.312 22.6738 106.312 21.8105C106.312 20.9473 106.49 20.1348 106.845 19.373C107.201 18.5944 107.675 17.9258 108.267 17.3672C108.876 16.7917 109.579 16.3346 110.375 15.9961C111.17 15.6576 112.016 15.4883 112.914 15.4883C113.828 15.4883 114.682 15.6576 115.478 15.9961C116.274 16.3346 116.976 16.7917 117.585 17.3672C118.161 17.9258 118.626 18.5944 118.982 19.373C119.337 20.1348 119.515 20.9473 119.515 21.8105ZM116.748 21.8105C116.748 21.2858 116.638 20.7949 116.417 20.3379C116.214 19.8809 115.944 19.4746 115.605 19.1191C115.25 18.7806 114.843 18.5098 114.386 18.3066C113.929 18.0866 113.438 17.9766 112.914 17.9766C112.406 17.9766 111.915 18.0866 111.441 18.3066C110.984 18.5098 110.586 18.7806 110.248 19.1191C109.892 19.4746 109.613 19.8809 109.41 20.3379C109.207 20.7949 109.105 21.2858 109.105 21.8105C109.105 22.3184 109.207 22.8092 109.41 23.2832C109.613 23.7402 109.892 24.138 110.248 24.4766C110.586 24.832 110.984 25.1113 111.441 25.3145C111.915 25.5176 112.406 25.6191 112.914 25.6191C113.438 25.6191 113.929 25.5176 114.386 25.3145C114.843 25.1113 115.25 24.832 115.605 24.4766C115.944 24.138 116.214 23.7402 116.417 23.2832C116.638 22.8092 116.748 22.3184 116.748 21.8105ZM125.837 12.3145H128.554V34.9629H125.837V12.3145ZM121.47 12.3398H124.111V34.8359H121.47V26.9395H118.931V24.5527H121.47V19.043H118.931V16.6562H121.47V12.3398ZM137.416 12.1875L144.373 23.791L142.087 25.1621L137.416 17.0879L132.794 25.3398L130.458 23.9688L137.416 12.1875ZM149.603 26.8125H146.81V12.3145H149.603V17.6465H152.853V20.4141H149.603V26.8125ZM134.953 26.9395V32.0176H150.187V34.5059H132.134V26.9395H134.953ZM160.14 14.7012V12.2891H163.162V14.7012H168.57V17.1133H162.832L169.027 31.0273L166.691 32.0684L161.664 20.5918L156.662 32.2461L154.275 31.1797L160.47 17.1133H154.503V14.7012H160.14ZM171.998 23.8164H167.63V21.3027H171.998V12.3145H174.816V34.9629H171.998V23.8164Z" fill="#D9D9D9"/>
</svg>
