<svg preserveAspectRatio="none" overflow="visible" style="display: block;" width="48" height="48" viewBox="0 0 48 48" fill="none" xmlns="http://www.w3.org/2000/svg">
<g id="hugeicons:ai-brain-02">
<g id="Group 1707482993">
<path id="Vector 7355" d="M6.51736 22.9653L21.3374 13.0853L27.0374 16.8853L39.1974 8.14531" stroke="white" stroke-width="2.5" stroke-linecap="round" stroke-linejoin="round"/>
<path id="Vector 7356" d="M34.638 6.99904H39.958V12.319" stroke="white" stroke-width="2.5" stroke-linecap="round" stroke-linejoin="round"/>
<g id="Group 1707482994">
<path id="Vector 7350" d="M8.8421 32.8437V40.0745C8.8421 40.6268 9.28982 41.0745 9.8421 41.0745H12.5789C13.1312 41.0745 13.5789 40.6268 13.5789 40.0745V32.8438C13.5789 32.2915 13.1312 31.8438 12.5789 31.8438H9.8421C9.28982 31.8438 8.8421 32.2915 8.8421 32.8437Z" fill="white" stroke="white" stroke-linecap="round" stroke-linejoin="round"/>
<path id="Vector 7351" d="M17.3684 28.2344V40.0805C17.3684 40.6328 17.8161 41.0805 18.3684 41.0805H21.1053C21.6575 41.0805 22.1053 40.6328 22.1053 40.0805V28.2344C22.1053 27.6821 21.6575 27.2344 21.1053 27.2344H18.3684C17.8161 27.2344 17.3684 27.6821 17.3684 28.2344Z" fill="white" stroke="white" stroke-linecap="round" stroke-linejoin="round"/>
<path id="Vector 7352" d="M25.8947 23.6172V40.0787C25.8947 40.631 26.3425 41.0787 26.8947 41.0787H29.6316C30.1839 41.0787 30.6316 40.631 30.6316 40.0787V23.6172C30.6316 23.0649 30.1839 22.6172 29.6316 22.6172H26.8947C26.3425 22.6172 25.8947 23.0649 25.8947 23.6172Z" fill="white" stroke="white" stroke-linecap="round" stroke-linejoin="round"/>
<path id="Vector 7353" d="M34.4211 19V40.0769C34.4211 40.6292 34.8688 41.0769 35.4211 41.0769H38.1579C38.7102 41.0769 39.1579 40.6292 39.1579 40.0769V19C39.1579 18.4477 38.7102 18 38.1579 18H35.4211C34.8688 18 34.4211 18.4477 34.4211 19Z" fill="white" stroke="white" stroke-linecap="round" stroke-linejoin="round"/>
<path id="Vector 7354" d="M6 41H42" stroke="white" stroke-width="2.5" stroke-linecap="round" stroke-linejoin="round"/>
</g>
</g>
</g>
</svg>
